<svg xmlns="http://www.w3.org/2000/svg" viewBox="0 0 512 512" role="img" aria-labelledby="title desc">
  <title id="title">VeneHelp favicon</title>
  <desc id="desc">Blue circle with a white helping hand and yellow blue red accent.</desc>
  <defs>
    <clipPath id="icon-circle">
      <circle cx="256" cy="256" r="212"/>
    </clipPath>
  </defs>
  <circle cx="256" cy="256" r="212" fill="#1558bf"/>
  <g fill="#fff">
    <rect x="182" y="214" width="148" height="136" rx="42"/>
    <rect x="180" y="134" width="30" height="112" rx="15"/>
    <rect x="216" y="126" width="30" height="120" rx="15"/>
    <rect x="252" y="126" width="30" height="120" rx="15"/>
    <rect x="288" y="138" width="30" height="108" rx="15"/>
    <rect x="132" y="236" width="110" height="34" rx="17" transform="rotate(-32 132 236)"/>
  </g>
  <g clip-path="url(#icon-circle)">
    <path fill="#f5c400" d="M399 334c-28 30-62 53-102 76-14 8-29 22-43 39 41-8 83-25 119-49 24-16 43-35 56-58z"/>
    <path fill="#1558bf" d="M392 349c-28 27-61 48-100 71-14 8-28 20-40 35 39-8 79-24 113-45 23-15 40-32 53-52z"/>
    <path fill="#d81f28" d="M385 364c-28 23-58 41-92 59-13 7-25 17-36 30 34-5 67-18 96-36 21-13 37-29 49-46z"/>
  </g>
</svg>
