<svg xmlns="http://www.w3.org/2000/svg" viewBox="0 0 512 512" role="img" aria-labelledby="title desc">
  <title id="title">VeneHelp favicon</title>
  <desc id="desc">Blue help circle with a white cross and yellow blue red accent.</desc>
  <defs>
    <linearGradient id="blueField" x1="96" y1="76" x2="408" y2="436" gradientUnits="userSpaceOnUse">
      <stop offset="0" stop-color="#1f66cf"/>
      <stop offset="1" stop-color="#0d49a8"/>
    </linearGradient>
    <clipPath id="circleClip">
      <circle cx="256" cy="256" r="212"/>
    </clipPath>
  </defs>
  <circle cx="256" cy="256" r="212" fill="url(#blueField)"/>
  <path
    fill="#fff"
    d="M233 126c-10 0-18 8-18 18v82h-82c-10 0-18 8-18 18v24c0 10 8 18 18 18h82v82c0 10 8 18 18 18h46c10 0 18-8 18-18v-82h82c10 0 18-8 18-18v-24c0-10-8-18-18-18h-82v-82c0-10-8-18-18-18h-46z"/>
  <g clip-path="url(#circleClip)">
    <path fill="#f7c600" d="M430 300c-21 37-52 67-102 101-28 19-47 38-68 67 44-16 91-39 133-71 25-19 43-39 56-60z"/>
    <path fill="#0d49a8" d="M421 319c-32 38-76 67-130 105-14 10-25 19-35 31 36-15 80-38 117-66 23-18 40-36 53-55z"/>
    <path fill="#d81f28" d="M411 339c-34 31-72 54-119 87-11 8-20 15-29 24 31-10 70-30 104-56 20-15 35-31 48-48z"/>
  </g>
</svg>
